<svg xmlns="http://www.w3.org/2000/svg" viewBox="86.524 27 203.608 106.299">
  <defs>
    <style>
      .cls-1 {
        fill: #fff;
      }

      .cls-2, .cls-3 {
        fill: #e4572e;
      }

      .cls-3 {
        font-size: 44px;
        font-family: Oswald-SemiBold, Oswald;
        font-weight: 600;
      }
    </style>
  </defs>
  <g id="LOGO" transform="translate(0 -10)">
    <g id="headphones-with-music-note" transform="translate(86.524 50.053)">
      <path id="Path_1" data-name="Path 1" class="cls-1" d="M42.554,0C20.4,0,1.681,18.048,1.681,39.412c0,12.045,5.977,26.43,15.226,36.649l.261.289.381-.076a4.923,4.923,0,0,0,3.1-2.086,5.779,5.779,0,0,0,6.123,1.227c.9,1.735,1.251,3.625-1.164,4.31-2.274.648-5.312-.193-7.555-.533A112.172,112.172,0,0,0,2.621,78.6c-1.778.067-1.784,2.835,0,2.768a128.249,128.249,0,0,1,17.632.924c2.256.321,5.137.765,7.3-.286,3.736-1.817,3.107-4.915,1.6-7.783,1.128-.689,2.331-1.559,3.636-2.495-3.616-1.59-8.351-8.7-11.585-14.9-2.288-4.391-6.765-13.7-6.26-18.4-2.8,1.921-4.97,3.594-6.15,5.79a39.068,39.068,0,0,1-.5-6.07c0-16.929,17.714-28.3,34.258-28.3,20.493,0,34.256,14.634,34.256,28.3a40.372,40.372,0,0,1-.462,5.986c-1.188-2.154-3.345-3.81-6.1-5.705.505,4.7-3.97,14.007-6.259,18.4-3.233,6.2-7.969,13.315-11.585,14.9,4.968,3.568,8.3,6.076,12.717,1.954a6.633,6.633,0,0,0,2.632,2.179l.458.2.332-.373C77.584,65.5,83.427,51.267,83.427,39.41,83.427,18.047,64.71,0,42.554,0Z" transform="translate(-1.285 0)"/>
      <path id="Path_2" data-name="Path 2" class="cls-2" d="M87.592,209.917a1.147,1.147,0,0,0-.471.1,1.064,1.064,0,0,0-.153.069c-2.009,1.317.694,9.772,5.5,19,4.389,8.419,9.375,14.494,11.741,14.494.044,0,.084-.013.126-.016a1.075,1.075,0,0,0,.48-.155,1.273,1.273,0,0,0,.382-.446c.005-.011.011-.026.016-.036,1.213-2.255-1.052-10.136-5.468-18.606C95.365,215.914,90.025,209.916,87.592,209.917Z" transform="translate(-71.322 -172.906)"/>
      <path id="Path_3" data-name="Path 3" class="cls-2" d="M289.124,229.087c4.81-9.226,7.513-17.683,5.5-19a1.07,1.07,0,0,0-.154-.069,1.144,1.144,0,0,0-.47-.1c-2.432,0-7.773,6-12.157,14.406-4.415,8.472-6.681,16.354-5.468,18.607.005.011.012.025.018.035a1.224,1.224,0,0,0,.38.446,1.055,1.055,0,0,0,.491.157.953.953,0,0,0,.116.016C279.748,243.584,284.734,237.507,289.124,229.087Z" transform="translate(-227.65 -172.905)"/>
      <path id="Path_4" data-name="Path 4" class="cls-1" d="M186.051,93.465a2.2,2.2,0,0,0-2.6,2.26v14.986a7.881,7.881,0,1,0,4.46,10.659,14.927,14.927,0,0,0,.693-5.15c.016-4.637.016-13.788.016-13.788,10.177,0,9.567,6.1,8.376,9.61-.466,1.373-.188,1.6.792.535C210.21,99.036,192.918,94.635,186.051,93.465Z" transform="translate(-142.643 -76.957)"/>
    </g>
    <text id="MOBIE_" data-name="MOBIE
" class="cls-3" transform="translate(175.043 89)"><tspan x="0" y="0">M</tspan><tspan class="cls-1" y="0">OBIE</tspan><tspan class="cls-1"><tspan x="0" y="36"></tspan></tspan></text>
    <text id="MUSIC" class="cls-3" transform="translate(174.132 130.299)"><tspan x="0" y="0">M</tspan><tspan class="cls-1" y="0">USIC</tspan></text>
  </g>
</svg>
